<svg width="136" height="158" viewBox="0 0 136 158" fill="none" xmlns="http://www.w3.org/2000/svg">
<path d="M43.3912 53.9512L65.5854 10.1808L87.709 53.9512L78.0747 71.2927L65.5854 61.9417L53.989 71.2927L12.5615 105.976L43.3912 53.9512Z" fill="#FEDD02"/>
<path d="M78.0745 71.2926L87.7088 53.9512L119.502 105.976L78.0745 71.2926Z" fill="#FEDD02"/>
<path d="M12.5615 0H43.4713V53.9512L12.5615 105.976V0Z" fill="white"/>
<path d="M119.502 0H87.9015V53.9512L119.502 105.976V0Z" fill="white"/>
<path d="M9.76 130.163H13.27L21.61 151.463H17.95L16.3 147.113H6.76L5.11 151.463H1.45L9.76 130.163ZM7.93 143.963H15.13L11.53 134.453L7.93 143.963ZM23.7145 151.463V130.163H27.1045V148.313H35.8945V151.463H23.7145ZM50.5068 151.463L43.9668 130.163H47.5368L52.0668 145.553L57.0168 130.163H59.7168L64.6368 145.553L69.1968 130.163H72.7668L66.2268 151.463H63.4968L58.3668 135.953L53.2068 151.463H50.5068ZM78.3147 130.163H81.8247L90.1647 151.463H86.5047L84.8547 147.113H75.3147L73.6647 151.463H70.0047L78.3147 130.163ZM76.4847 143.963H83.6847L80.0847 134.453L76.4847 143.963ZM92.2691 151.463V130.163H95.6591V140.753L104.569 130.163H108.409L100.159 139.913L109.129 151.463H105.349L98.1191 142.313L95.6591 145.223V151.463H92.2691ZM111.341 151.463V130.163H114.731V151.463H111.341ZM117.992 151.463V130.163H121.382V148.313H130.172V151.463H117.992Z" fill="#FEDD02"/>
<path fill-rule="evenodd" clip-rule="evenodd" d="M84.8183 111.756H81.928L79.0377 116.573H84.8183C85.5779 116.815 85.7117 117.058 85.7817 117.537V119.463H54.952V114.646C53.6434 115.205 53.025 115.637 52.0617 116.573H53.0251V119.463H11.5977V111.756L9.67086 112.72V120.427C9.67117 121.786 9.40483 122.378 8.70743 123.317C7.24013 124.223 6.39046 124.134 4.85371 123.317C3.66928 122.332 3.33023 121.671 2.92686 120.427V117.537H1V121.39C1.78158 123.177 2.38742 124.047 3.89029 125.244C6.11304 126.128 7.37905 126.08 9.67086 125.244C10.7795 124.1 11.2025 123.234 11.5977 121.39H87.7086V116.573C87.4693 115.364 87.1549 114.851 85.7817 114.646H82.8914L84.8183 111.756ZM126.246 112.72L128.173 111.756V120.427C128.126 121.176 127.826 121.285 127.209 121.39H95.416C94.9033 124.46 92.8506 125.879 90.5989 126.207C92.0615 124.926 93.0062 123.287 92.5257 121.39H90.5989C90.5989 121.39 89.781 120.427 89.6354 119.463C89.5282 118.754 89.5606 118.133 89.5986 117.405V117.405C89.6122 117.144 89.6265 116.87 89.6354 116.573C90.1156 115.622 90.4998 115.164 91.5623 114.646H95.416V119.463H126.246V112.72ZM130.099 111.756H132.026V121.39H130.099V111.756ZM93.5765 119.464C93.5765 119.464 92.2758 119.881 91.6497 119.464C90.7105 118.837 90.7105 117.199 91.6497 116.573C92.2758 116.156 93.5765 116.573 93.5765 116.573V119.464Z" fill="white"/>
<path d="M81.928 111.756V111.706H81.8997L81.8851 111.73L81.928 111.756ZM84.8183 111.756L84.8599 111.784L84.9117 111.706H84.8183V111.756ZM79.0377 116.573L78.9948 116.547L78.9494 116.623H79.0377V116.573ZM84.8183 116.573L84.8335 116.526L84.8261 116.523H84.8183V116.573ZM85.7817 117.537H85.8322L85.8312 117.529L85.7817 117.537ZM85.7817 119.463V119.513H85.8317V119.463H85.7817ZM54.952 119.463H54.902V119.513H54.952V119.463ZM54.952 114.646H55.002V114.571L54.9324 114.6L54.952 114.646ZM52.0617 116.573L52.0269 116.537L51.9386 116.623H52.0617V116.573ZM53.0251 116.573H53.0751V116.523H53.0251V116.573ZM53.0251 119.463V119.513H53.0751V119.463H53.0251ZM11.5977 119.463H11.5477V119.513H11.5977V119.463ZM11.5977 111.756H11.6477V111.675L11.5754 111.711L11.5977 111.756ZM9.67086 112.72L9.6485 112.675L9.62086 112.689V112.72H9.67086ZM9.67086 120.427L9.62086 120.427L9.62086 120.427L9.67086 120.427ZM8.70743 123.317L8.7337 123.36L8.74185 123.355L8.74756 123.347L8.70743 123.317ZM4.85371 123.317L4.82105 123.356L4.83025 123.361L4.85371 123.317ZM2.92686 120.427H2.87686V120.435L2.87929 120.442L2.92686 120.427ZM2.92686 117.537H2.97686V117.487H2.92686V117.537ZM1 117.537V117.487H0.95V117.537H1ZM1 121.39H0.95V121.401L0.954192 121.41L1 121.39ZM3.89029 125.244L3.85914 125.283L3.86493 125.288L3.87181 125.29L3.89029 125.244ZM9.67086 125.244L9.68799 125.291L9.69878 125.287L9.70677 125.279L9.67086 125.244ZM11.5977 121.39V121.34H11.5573L11.5488 121.38L11.5977 121.39ZM87.7086 121.39V121.44H87.7586V121.39H87.7086ZM87.7086 116.573H87.7595L87.7576 116.563L87.7086 116.573ZM85.7817 114.646L85.7892 114.596H85.7817V114.646ZM82.8914 114.646L82.8498 114.619L82.798 114.696H82.8914V114.646ZM128.173 111.756H128.223V111.675L128.15 111.711L128.173 111.756ZM126.246 112.72L126.223 112.675L126.196 112.689V112.72H126.246ZM128.173 120.427L128.223 120.43V120.427H128.173ZM127.209 121.39V121.441L127.218 121.44L127.209 121.39ZM95.416 121.39V121.34H95.3737L95.3667 121.382L95.416 121.39ZM90.5989 126.207L90.5659 126.17L90.4387 126.281L90.6061 126.257L90.5989 126.207ZM92.5257 121.39L92.5742 121.378L92.5646 121.34H92.5257V121.39ZM90.5989 121.39L90.5607 121.423L90.5757 121.44H90.5989V121.39ZM89.6354 119.463L89.586 119.471L89.586 119.471L89.6354 119.463ZM89.5986 117.405L89.6486 117.407V117.405H89.5986ZM89.5986 117.405L89.5486 117.402V117.405H89.5986ZM89.6354 116.573L89.5908 116.551L89.5858 116.561L89.5855 116.572L89.6354 116.573ZM91.5623 114.646V114.596H91.5508L91.5404 114.601L91.5623 114.646ZM95.416 114.646H95.466V114.596H95.416V114.646ZM95.416 119.463H95.366V119.513H95.416V119.463ZM126.246 119.463V119.513H126.296V119.463H126.246ZM132.026 111.756H132.076V111.706H132.026V111.756ZM130.099 111.756V111.706H130.049V111.756H130.099ZM132.026 121.39V121.44H132.076V121.39H132.026ZM130.099 121.39H130.049V121.44H130.099V121.39ZM91.6497 119.464L91.6219 119.505L91.6219 119.505L91.6497 119.464ZM93.5765 119.464L93.5918 119.511L93.6265 119.5V119.464H93.5765ZM91.6497 116.573L91.6219 116.532L91.6219 116.532L91.6497 116.573ZM93.5765 116.573H93.6265V116.537L93.5918 116.526L93.5765 116.573ZM81.928 111.806H84.8183V111.706H81.928V111.806ZM79.0806 116.599L81.9709 111.782L81.8851 111.73L78.9948 116.547L79.0806 116.599ZM84.8183 116.523H79.0377V116.623H84.8183V116.523ZM85.8312 117.529C85.7958 117.287 85.7431 117.095 85.5956 116.932C85.4493 116.772 85.2156 116.647 84.8335 116.526L84.8031 116.621C85.1806 116.741 85.3935 116.859 85.5216 117C85.6484 117.139 85.6976 117.307 85.7322 117.544L85.8312 117.529ZM85.8317 119.463V117.537H85.7317V119.463H85.8317ZM54.952 119.513H85.7817V119.413H54.952V119.513ZM54.902 114.646V119.463H55.002V114.646H54.902ZM52.0966 116.609C53.0556 115.676 53.6689 115.249 54.9716 114.692L54.9324 114.6C53.6178 115.162 52.9943 115.597 52.0269 116.537L52.0966 116.609ZM53.0251 116.523H52.0617V116.623H53.0251V116.523ZM53.0751 119.463V116.573H52.9751V119.463H53.0751ZM11.5977 119.513H53.0251V119.413H11.5977V119.513ZM11.5477 111.756V119.463H11.6477V111.756H11.5477ZM9.69322 112.764L11.6201 111.801L11.5754 111.711L9.6485 112.675L9.69322 112.764ZM9.72086 120.427V112.72H9.62086V120.427H9.72086ZM8.74756 123.347C9.09726 122.876 9.34171 122.489 9.49793 122.046C9.65422 121.604 9.72101 121.11 9.72086 120.427L9.62086 120.427C9.62101 121.103 9.55479 121.585 9.40364 122.013C9.25242 122.441 9.015 122.819 8.6673 123.287L8.74756 123.347ZM4.83025 123.361C5.60024 123.77 6.2055 124.002 6.80566 124.013C7.4071 124.025 7.99601 123.815 8.7337 123.36L8.68116 123.275C7.95155 123.725 7.38197 123.924 6.80757 123.913C6.23188 123.902 5.64394 123.68 4.87717 123.273L4.83025 123.361ZM2.87929 120.442C3.08134 121.066 3.26851 121.547 3.55524 121.996C3.84215 122.446 4.22708 122.861 4.82174 123.356L4.88569 123.279C4.29592 122.788 3.91911 122.38 3.63954 121.942C3.35979 121.504 3.17575 121.033 2.97442 120.411L2.87929 120.442ZM2.87686 117.537V120.427H2.97686V117.537H2.87686ZM1 117.587H2.92686V117.487H1V117.587ZM1.05 121.39V117.537H0.95V121.39H1.05ZM3.92143 125.205C3.17214 124.608 2.64846 124.095 2.21486 123.509C1.78107 122.922 1.43597 122.262 1.04581 121.37L0.954192 121.41C1.34561 122.305 1.69422 122.973 2.13447 123.568C2.5749 124.163 3.10557 124.683 3.85914 125.283L3.92143 125.205ZM9.65373 125.197C8.50993 125.614 7.62676 125.833 6.75434 125.839C5.88233 125.845 5.01685 125.638 3.90877 125.197L3.87181 125.29C4.98648 125.734 5.86538 125.945 6.75502 125.939C7.64424 125.933 8.53997 125.71 9.68799 125.291L9.65373 125.197ZM11.5488 121.38C11.3516 122.3 11.1481 122.973 10.8571 123.557C10.5663 124.141 10.1869 124.639 9.63495 125.209L9.70677 125.279C10.2634 124.704 10.6499 124.198 10.9466 123.602C11.243 123.006 11.4486 122.324 11.6466 121.401L11.5488 121.38ZM87.7086 121.34H11.5977V121.44H87.7086V121.34ZM87.6586 116.573V121.39H87.7586V116.573H87.6586ZM85.7743 114.696C86.4565 114.798 86.8648 114.975 87.1335 115.267C87.4035 115.561 87.54 115.979 87.6595 116.583L87.7576 116.563C87.6378 115.958 87.4975 115.516 87.2072 115.2C86.9156 114.882 86.4801 114.7 85.7891 114.597L85.7743 114.696ZM82.8914 114.696H85.7817V114.596H82.8914V114.696ZM84.7767 111.728L82.8498 114.619L82.933 114.674L84.8599 111.784L84.7767 111.728ZM128.15 111.711L126.223 112.675L126.268 112.764L128.195 111.801L128.15 111.711ZM128.223 120.427V111.756H128.123V120.427H128.223ZM127.218 121.44C127.524 121.387 127.767 121.332 127.937 121.188C128.11 121.041 128.199 120.81 128.222 120.43L128.123 120.424C128.1 120.793 128.015 120.991 127.872 121.112C127.727 121.236 127.511 121.288 127.201 121.341L127.218 121.44ZM95.416 121.44H127.209V121.34H95.416V121.44ZM90.6061 126.257C91.7398 126.092 92.8258 125.652 93.6932 124.864C94.561 124.076 95.2073 122.943 95.4653 121.398L95.3667 121.382C95.112 122.907 94.4756 124.019 93.626 124.79C92.7759 125.562 91.7096 125.995 90.5917 126.158L90.6061 126.257ZM92.4773 121.403C92.9511 123.273 92.0219 124.894 90.5659 126.17L90.6318 126.245C92.1011 124.958 93.0613 123.301 92.5742 121.378L92.4773 121.403ZM90.5989 121.44H92.5257V121.34H90.5989V121.44ZM89.586 119.471C89.6603 119.962 89.9052 120.451 90.1292 120.814C90.2415 120.997 90.3491 121.148 90.4288 121.255C90.4686 121.308 90.5015 121.35 90.5244 121.378C90.5359 121.393 90.5449 121.404 90.5511 121.411C90.5542 121.415 90.5566 121.418 90.5582 121.42C90.559 121.421 90.5596 121.421 90.56 121.422C90.5603 121.422 90.5604 121.422 90.5605 121.422C90.5606 121.422 90.5606 121.422 90.5607 121.423C90.5607 121.423 90.5607 121.423 90.5607 121.423C90.5607 121.423 90.5607 121.423 90.5989 121.39C90.637 121.358 90.637 121.358 90.637 121.358C90.637 121.358 90.637 121.358 90.637 121.358C90.637 121.358 90.6369 121.358 90.6369 121.358C90.6368 121.358 90.6367 121.358 90.6365 121.357C90.6361 121.357 90.6356 121.356 90.6348 121.355C90.6334 121.354 90.6311 121.351 90.6282 121.347C90.6223 121.34 90.6136 121.33 90.6024 121.316C90.5801 121.288 90.5479 121.247 90.5088 121.195C90.4306 121.09 90.3247 120.941 90.2143 120.762C89.9929 120.403 89.7562 119.928 89.6849 119.456L89.586 119.471ZM89.5487 117.402C89.5107 118.13 89.4779 118.756 89.586 119.471L89.6849 119.456C89.5785 118.752 89.6105 118.136 89.6485 117.407L89.5487 117.402ZM89.5486 117.405V117.405H89.6486V117.405H89.5486ZM89.5855 116.572C89.5766 116.868 89.5623 117.142 89.5487 117.402L89.6485 117.407C89.6621 117.147 89.6765 116.872 89.6854 116.575L89.5855 116.572ZM91.5404 114.601C91.0061 114.862 90.6389 115.109 90.3446 115.412C90.0505 115.716 89.8317 116.073 89.5908 116.551L89.6801 116.596C89.9193 116.122 90.1327 115.775 90.4164 115.482C90.6999 115.189 91.056 114.949 91.5842 114.691L91.5404 114.601ZM95.416 114.596H91.5623V114.696H95.416V114.596ZM95.466 119.463V114.646H95.366V119.463H95.466ZM126.246 119.413H95.416V119.513H126.246V119.413ZM126.196 112.72V119.463H126.296V112.72H126.196ZM132.026 111.706H130.099V111.806H132.026V111.706ZM132.076 121.39V111.756H131.976V121.39H132.076ZM130.099 121.44H132.026V121.34H130.099V121.44ZM130.049 111.756V121.39H130.149V111.756H130.049ZM91.6219 119.505C91.788 119.616 91.9958 119.669 92.2103 119.689C92.4252 119.709 92.6504 119.696 92.8543 119.67C93.0584 119.643 93.2425 119.604 93.3755 119.571C93.4421 119.554 93.4959 119.539 93.5333 119.529C93.5519 119.523 93.5665 119.519 93.5764 119.516C93.5813 119.514 93.5851 119.513 93.5877 119.512C93.589 119.512 93.59 119.512 93.5907 119.512C93.591 119.511 93.5913 119.511 93.5915 119.511C93.5916 119.511 93.5917 119.511 93.5917 119.511C93.5917 119.511 93.5918 119.511 93.5918 119.511C93.5918 119.511 93.5918 119.511 93.5765 119.464C93.5613 119.416 93.5613 119.416 93.5613 119.416C93.5613 119.416 93.5613 119.416 93.5612 119.416C93.5612 119.416 93.5612 119.416 93.5611 119.416C93.561 119.416 93.5608 119.416 93.5605 119.416C93.5599 119.416 93.559 119.417 93.5578 119.417C93.5555 119.418 93.5519 119.419 93.5472 119.42C93.5377 119.423 93.5237 119.427 93.5056 119.433C93.4693 119.443 93.4167 119.458 93.3515 119.474C93.221 119.506 93.0408 119.545 92.8415 119.571C92.642 119.596 92.4246 119.609 92.2195 119.59C92.014 119.571 91.8245 119.52 91.6774 119.422L91.6219 119.505ZM91.6219 116.532C91.1352 116.856 90.8953 117.44 90.8953 118.018C90.8953 118.597 91.1352 119.181 91.6219 119.505L91.6774 119.422C91.225 119.12 90.9953 118.572 90.9953 118.018C90.9953 117.465 91.225 116.917 91.6774 116.615L91.6219 116.532ZM93.5765 116.573C93.5918 116.526 93.5918 116.526 93.5918 116.526C93.5918 116.526 93.5917 116.526 93.5917 116.526C93.5917 116.526 93.5916 116.526 93.5915 116.526C93.5913 116.526 93.591 116.525 93.5907 116.525C93.59 116.525 93.589 116.525 93.5877 116.524C93.5851 116.524 93.5813 116.522 93.5764 116.521C93.5665 116.518 93.5519 116.514 93.5333 116.508C93.4959 116.497 93.4421 116.483 93.3755 116.466C93.2425 116.433 93.0584 116.394 92.8543 116.367C92.6504 116.341 92.4252 116.327 92.2103 116.347C91.9958 116.367 91.788 116.421 91.6219 116.532L91.6774 116.615C91.8245 116.517 92.014 116.466 92.2195 116.447C92.4246 116.428 92.642 116.441 92.8415 116.466C93.0408 116.492 93.221 116.531 93.3515 116.563C93.4167 116.579 93.4693 116.594 93.5056 116.604C93.5237 116.609 93.5377 116.614 93.5472 116.617C93.5519 116.618 93.5555 116.619 93.5578 116.62C93.559 116.62 93.5599 116.621 93.5605 116.621C93.5608 116.621 93.561 116.621 93.5611 116.621C93.5612 116.621 93.5612 116.621 93.5612 116.621C93.5613 116.621 93.5613 116.621 93.5613 116.621C93.5613 116.621 93.5613 116.621 93.5765 116.573ZM93.6265 119.464V116.573H93.5265V119.464H93.6265Z" fill="white"/>
<ellipse cx="55.9156" cy="124.28" rx="0.963429" ry="0.963415" fill="white"/>
<ellipse cx="53.025" cy="124.28" rx="0.963429" ry="0.963415" fill="white"/>
</svg>
